<svg version="1" xmlns="http://www.w3.org/2000/svg" width="666.667" height="666.667" viewBox="0 0 500.000000 500.000000"><path d="M235.5 53c-38.2 2.9-79.6 16.1-110.9 35.2-54.7 33.3-93.3 86-108.3 147.8-4.4 18.2-5.4 26.8-6 50.7L9.7 310h207.8l2.5-4.8 2.5-4.7 6.1-.3c7.7-.4 9.7 1.3 6.5 5.4-1.2 1.5-2.1 3.1-2.1 3.5 0 .5 57.5.9 130 .9h130v-20.6c0-23.3-1-32.1-6.4-55.5-6.4-27.2-21.6-59.8-38.8-82.7-34.4-45.8-78.2-75.3-134.3-90.5-24.2-6.6-54.1-9.6-78-7.7zm42.3 39.5c31.9 4 60.1 14.7 90.4 34.6 2.1 1.3 3.8 2.7 3.8 3 0 .3-5.3 5.7-11.7 11.9-6.5 6.3-34.1 33.3-61.3 60-59.7 58.6-65.9 64.5-67.5 64.5-1.4 0-120.5-117.9-120.5-119.2.1-.4 3.9-4 8.6-7.8 31.5-26 67-41.8 105.4-46.9 14.2-1.9 37.9-1.9 52.8-.1zm128.7 69.7c14.5 17.2 26.6 37.7 34.8 58.8 4.7 12.3 11.7 40.8 11.7 47.8v2.2h-88.5c-48.7 0-88.5-.4-88.5-.8 0-.5 11.1-11.7 24.8-25 13.6-13.3 40.5-39.7 59.7-58.6 19.3-19 35.5-34.5 36.2-34.6.6 0 5 4.6 9.8 10.2zm-284 43.8c14.9 14.6 35.4 34.9 45.8 45 10.3 10.1 18.7 18.8 18.7 19.2 0 .4-30.8.8-68.5.8-57.6 0-68.5-.2-68.5-1.4 0-6.8 5.6-30.7 11-46.6 4.2-12.4 17-36.8 24.6-46.7l2.6-3.5 3.7 3.4c2 1.8 15.8 15.2 30.6 29.8z"/><path d="M221.1 307.6c-1.7 3.6-2.8 7-2.5 7.5.3.5 1.8.9 3.4.9 2.3 0 3.7-1.1 7.4-6 6-7.9 6-9-.3-9h-4.9l-3.1 6.6zM22.5 316.9c-8 2-13.1 9.1-12.2 16.9.7 5.9 2.9 8.7 12.3 15 9 5.9 10.4 7.5 10.4 11.4 0 7.1-14.2 6.1-19.4-1.4-2.2-3.2-3.6-1.2-3.6 5.2v5.9l5.4 2.5c9.6 4.6 19.8 3.1 24.9-3.5 7.2-9.5 3.2-20.4-10.3-28.3-6.3-3.6-8.7-5.8-9.4-8.2-1.7-5.6 9-7.5 15.8-2.9 2.1 1.4 4.2 2.3 4.7 2 .5-.4.9-2.8.9-5.5 0-4.7-.2-5.1-3.8-6.9-4.5-2.3-11.5-3.3-15.7-2.2zM118.3 317c-6.4 1.3-11.6 4.5-16.5 9.8-5.2 5.9-6.8 10.5-6.8 19.8 0 11.5 5.4 20.1 16 25.6 6.5 3.3 18.4 3.7 26.2.8 6.4-2.4 12.6-7.9 16-14.2 1.9-3.6 2.3-5.9 2.3-13.3 0-8-.3-9.5-2.7-13.6-6.9-11.7-20.9-17.7-34.5-14.9zm15.4 11.5c5 2.1 7.2 4.2 9.4 9 4.6 10 .1 21.8-9.8 26.1-6.4 2.7-16.5 1.1-21.7-3.4-3-2.7-5.6-9.3-5.6-14.2 0-4.9 2.6-11.5 5.6-14.2 5.5-4.9 14.9-6.3 22.1-3.3zM312.1 317c-8.1 2-12.5 8.4-11.7 16.9.6 6.4 2.3 8.6 12.1 14.9 3.9 2.5 7.8 5.4 8.7 6.6 6.4 7.7-5 13.1-14 6.7-2.2-1.6-4.3-3.5-4.7-4.1-1.4-2.3-2.5.4-2.5 6.1v6l5.3 2.4c8.8 4.2 19.6 2.8 24.9-3.1 3-3.5 4.2-9.8 2.8-14.8-1.4-5.2-4.9-8.7-14.7-15-8-5-10.2-8.7-6.8-11.3 3.1-2.2 10.5-1.6 14.7 1.2 2 1.4 3.9 2.5 4.2 2.5.4 0 .6-2.6.6-5.8 0-5.6-.1-5.9-3.4-7.4-4.3-2.1-11.2-2.9-15.5-1.8zM456.3 317c-9.1 1.9-17.4 8.5-21.2 17-2.8 6-2.8 17.8-.2 23.6 2.9 6.5 8.4 11.8 15.2 14.9 5.4 2.4 7.1 2.7 14.2 2.3 9.8-.4 16.1-3.1 22.2-9.3 9.9-10.3 10.1-27.9.4-38.9-7-7.9-19.6-11.9-30.6-9.6zm15.4 11.5c7.2 3 11.3 9.3 11.3 17 0 6.2-1.9 10.3-6.8 14.7-9 8.2-24.7 5.5-30.2-5.2-3.7-7.2-2-18.1 3.6-23.2 5.5-4.9 14.9-6.3 22.1-3.3zM44.4 318.4c-.3.8-.4 2.9-.2 4.8l.3 3.3 9.3.3 9.2.3V374h11v-46.9l9.3-.3 9.2-.3.3-4.8.3-4.7H69c-19.7 0-24.2.3-24.6 1.4zM163 345.4V374h43.5l3.4-8 3.3-8h20.6l1.5 3.2c.8 1.8 2.5 5.4 3.7 8l2.2 4.8h5.4c3 0 5.4-.4 5.4-.8 0-.5-1.1-3-2.3-5.8-1.3-2.7-3.4-7.2-4.6-9.9-1.2-2.8-5.7-12.9-10-22.5l-7.8-17.5-4-.3-3.9-.3-4.4 10.3c-2.4 5.7-5.1 12.1-6.1 14.3-1 2.2-3.2 7.4-4.9 11.5-5.1 12.1-5.7 13.3-6.4 12.1-.5-.7-5-1.1-12.4-1.1h-11.7v-46.5l-5.2-.3-5.3-.3v28.5zm66 2.7c0 .5-2.7.9-6 .9h-6l1.5-3.5c.8-1.9 2.2-5.2 3.1-7.2l1.6-3.7 2.9 6.3c1.6 3.4 2.9 6.6 2.9 7.2zM255 345.6v28.5l5.3-.3 5.2-.3.3-11.3.3-11.2h2.6c2.9 0 8.3 5.1 11 10.3.8 1.8 3.1 5.3 5 7.9l3.5 4.8h6c3.3 0 5.8-.4 5.6-.8-.8-1.9-10.7-16.9-13.9-21.1l-3.6-4.7 3.3-3.7c3.1-3.4 3.4-4.2 3.4-10.1 0-6.2-.2-6.7-3.7-10.4-4.7-4.9-9-6.2-21-6.2H255v28.6zm20.8-17c1.5 1 2.2 2.5 2.2 4.7 0 4.3-1 5.6-5.1 6.7-6.7 1.9-6.9 1.8-6.9-6v-7h3.8c2.1 0 4.8.7 6 1.6zM334.4 318.4c-.3.8-.4 2.9-.2 4.8l.3 3.3 9.3.3 9.2.3V374h11v-47h8.8c4.8 0 9.3-.5 9.8-1 .7-.7 4.3 6.5 11.3 22.9 5.7 13.2 10.9 24.6 11.7 25.2 2.3 1.9 3.6-.1 10.9-17.6 3.7-8.8 7.3-17.4 8-19 5.2-11.7 7.5-17.6 7.5-19 0-1.3-.9-1.5-5.1-1.3l-5.1.3-4.4 10.5c-2.4 5.8-4.8 11.4-5.4 12.5-.5 1.1-1.8 4.2-2.9 6.9-1.2 2.7-2.3 4.7-2.5 4.5-.3-.3-6.3-14.3-13.9-32.2l-1.2-2.7h-28.3c-23.3 0-28.4.2-28.8 1.4zM164.4 376.5c-.4.8 1.4 4 4 7.5 2.9 3.8 4.2 6.2 3.4 6.4-11.6 3.4-20.2 10.4-23.1 19-5.1 14.8.7 29.5 14.3 36.3 5.8 3 7.4 3.3 15 3.2 6.4 0 10-.6 14.5-2.3l6-2.3v-5.4c0-6.3-.1-6.3-9-2.5-16.5 7-31.5-1.2-31.5-17.3 0-6.6 4.2-13.1 10.5-16.1 3.9-1.9 5.8-2.2 12-1.8 4.8.3 8.7 1.2 11.4 2.6 2.3 1.2 4.6 2.2 5.1 2.2.6 0 1-2.5 1-5.5 0-5.3-.1-5.5-3.5-6.9-2-.9-5.2-1.8-7.3-2.2-2-.4-4-.9-4.5-1.1-.4-.2 1.4-3.1 3.9-6.4 2.6-3.4 4.3-6.6 4-7.4-.9-2.4-4.9-1.7-8.6 1.5-1.9 1.6-3.9 2.9-4.5 2.9-.5 0-2.6-1.3-4.5-2.9-3.7-3.2-7.7-3.9-8.6-1.5zM425.1 381.6c-1.7 3.6-2.9 7-2.6 7.5.4.5 1.9.9 3.5.9 2.3 0 3.7-1.1 7.4-6.1 6-7.9 5.9-8.9-.3-8.9h-4.8l-3.2 6.6z"/><path d="M53.4 378.4c-.3.8-.4 3.1-.2 5.2l.3 3.9 57.3.3c31.4.1 57.2 0 57.2-.3s-1.6-2.7-3.6-5.5l-3.6-5h-53.4c-44.8 0-53.5.2-54 1.4zM190.5 381.6c-1.9 2.6-3.5 5.1-3.5 5.5 0 .5 52.6.9 117 .9h117l2-4.4c1.1-2.5 2-5 2-5.5 0-.8-35.1-1.1-115.5-1.1H194.1l-3.6 4.6zM439.5 378.3c-2.7 3.1-6.5 8.5-6.5 9 0 .4 4.7.7 10.5.7H454v-11h-6.7c-4.1.1-7.2.6-7.8 1.3zM64 391.3c-7.2 3.3-10.1 7.6-10.2 14.6 0 7.3 2.9 10.9 14.6 18.5 2.7 1.7 5.9 4.4 7 5.9 1.9 2.6 1.9 3 .5 5.5-2.8 5-11.8 4.1-17.5-1.9-1.5-1.6-3.1-2.9-3.6-2.9-.4 0-.8 2.9-.8 6.5v6.5l5 2.5c13.6 6.9 28-.3 28-14 0-6.8-3.6-11.9-12.2-17-8.3-5-10.8-7.4-10.8-10.2 0-5.7 8.9-6.8 15.9-1.8 2.1 1.4 4 2.5 4.4 2.5.4 0 .7-2.6.7-5.9v-5.9l-4.9-2.1c-5.4-2.3-12.1-2.6-16.1-.8zM328.3 391.2c-1.7.6-4.6 2.6-6.4 4.4-2.9 3-3.4 4.2-3.7 9.8-.4 5.9-.2 6.5 2.7 9.9 1.8 2 6.1 5.4 9.6 7.6 10.4 6.6 12.8 10.7 8.7 14.4-3.8 3.5-12.1 1.7-17.1-3.7-1.3-1.4-2.8-2.3-3.2-2-.5.3-.9 3.2-.9 6.4v6l5 2.5c9.2 4.6 20.2 2.8 25.5-4.3 1.3-1.7 2.1-4.7 2.3-8.7.5-8-1.8-11.3-13.3-19-7.2-4.8-9.1-6.6-9.3-8.7-.7-6.2 8.2-7.5 15.9-2.3 2.1 1.4 4.1 2.5 4.4 2.5.3 0 .5-2.6.5-5.9 0-5.8 0-5.9-3.7-7.7-4.5-2.1-12.6-2.7-17-1.2zM92 412c0 18.8.2 21.5 1.9 24.8 2.3 4.5 5.3 7.3 10.8 10.1 8.9 4.4 24.6 1.9 31-5 4.7-5.2 5.3-8.5 5.3-30.4v-20.6l-5.2.3-5.3.3-.5 20.6c-.4 15.8-.8 21-1.9 22.3-5.7 6.8-20.2 5.8-24.2-1.6-.8-1.5-1.4-9.2-1.7-22l-.5-19.8H92v21zM221.4 394.7c-3.3 8-19.7 46-21.2 49.1-1.8 4.1-.8 5.2 5 5.2 4.3 0 5.3-1.2 8.9-10.7l2.4-6.3h21.1l1.9 4.2c5.7 13.1 5.4 12.8 10.8 12.8 2.5 0 4-.5 4.4-1.6.5-1.3-3.5-11-15.5-37.4-1.4-3-3.7-8.4-5.3-12-2.7-6.4-2.8-6.5-6.8-6.8-4-.3-4.2-.1-5.7 3.5zm7.5 18c.6 1.6 1.7 4.3 2.5 6l1.5 3.3h-11.8l1.6-3.8c.8-2 1.9-4.7 2.4-6 1.1-3 2.5-2.8 3.8.5zM258.6 392.6c-.3.9-.6 13.4-.6 27.8 0 19 .3 26.5 1.2 27.4 1.3 1.3 6.6 1.6 8.5.4.9-.6 1.3-6.1 1.5-19.6l.3-18.7 17 19.5c14.2 16.5 17.3 19.6 19.6 19.6 6.2 0 5.9 1.4 5.9-29.7v-28.4l-5.2.3-5.3.3-.3 19.2-.2 19.3-4.8-5.3c-2.6-2.9-10.2-11.7-17-19.5-11.8-13.7-12.5-14.2-16.2-14.2-2.5 0-4 .5-4.4 1.6zM357.2 419.7l.3 28.8h9l.3-12.9.3-12.9 13.3 13.1 13.3 13.2h4.9c9.5 0 9.3-.7-6.8-16.5l-14.7-14.4 6.7-7.3c3.7-4 8.8-9.6 11.4-12.3 6.5-6.8 6.3-7.7-1.4-7.3l-6.1.3-10.4 11.2-10.3 11.2V391h-10l.2 28.7zM403 392c0 .6 4.5 6.7 10 13.7l10 12.8v14.7c0 14.7 0 14.8 2.4 15.4 1.3.3 3.7.4 5.2.2l2.9-.3.3-14.9.3-14.9 9.9-12.8c5.5-7 10-13.3 10-13.8 0-.7-2.4-1.1-5.9-1.1h-5.8l-6.9 8.9-6.9 8.8-6.9-8.8-6.9-8.9h-5.9c-3.2 0-5.8.4-5.8 1z"/></svg>